<?xml version="1.0" encoding="utf-8"?>
<!-- Generator: Adobe Illustrator 26.0.1, SVG Export Plug-In . SVG Version: 6.00 Build 0)  -->
<svg version="1.1" id="f9a03478-691b-4bac-974f-dbc86379789a"
	 xmlns="http://www.w3.org/2000/svg" xmlns:xlink="http://www.w3.org/1999/xlink" x="0px" y="0px" viewBox="0 0 295 157.3"
	 style="enable-background:new 0 0 295 157.3;" xml:space="preserve">
<style type="text/css">
	.st0{fill:#FFFFFF;}
	.st1{fill:#F2922B;}
	.st2{fill:#5FC3E1;}
	.st3{fill:#807341;}
</style>
<path class="st0" d="M146.6,123.5c-0.9,0-1.8-0.2-2.6-0.6c-0.8-0.4-1.5-0.9-2-1.5c-1.8-2-2.3-4.8-1.3-7.3c0.3-0.8,0.8-1.5,1.4-2.2
	c0.6-0.6,1.3-1.1,2.1-1.5c0.8-0.4,1.7-0.6,2.5-0.6c0.9,0,1.8,0.2,2.6,0.6c0.8,0.4,1.5,0.9,2,1.6c0.5,0.7,1,1.4,1.3,2.2
	c0.3,0.8,0.5,1.7,0.5,2.5c0,0.9-0.2,1.7-0.5,2.5c-0.6,1.6-1.8,3-3.4,3.7C148.3,123.3,147.4,123.5,146.6,123.5z M142.3,116.6
	c0,0.6,0.1,1.2,0.3,1.8c0.2,0.6,0.5,1.1,0.9,1.6c0.4,0.5,0.8,0.8,1.4,1.1c0.6,0.3,1.2,0.4,1.8,0.4c0.6,0,1.3-0.1,1.8-0.4
	c0.5-0.3,0.9-0.7,1.3-1.1c0.4-0.5,0.7-1,0.8-1.6c0.2-0.6,0.3-1.2,0.3-1.8c0-0.6-0.1-1.3-0.3-1.9c-0.2-0.6-0.5-1.1-0.9-1.6
	c-0.4-0.5-0.8-0.8-1.4-1.1c-0.5-0.3-1.2-0.4-1.8-0.4c-0.6,0-1.3,0.1-1.8,0.4c-0.5,0.3-1,0.6-1.3,1.1c-0.4,0.5-0.7,1-0.8,1.6
	C142.3,115.4,142.3,116,142.3,116.6L142.3,116.6z"/>
<path class="st0" d="M164,123.4h-2.1v-5.6c0.1-0.7-0.1-1.4-0.5-2c-0.3-0.4-0.8-0.7-1.3-0.6c-0.3,0-0.6,0.1-0.9,0.2
	c-0.3,0.1-0.6,0.3-0.8,0.5c-0.3,0.2-0.5,0.5-0.7,0.7c-0.2,0.3-0.4,0.6-0.5,0.9v5.9h-2.1v-9.9h1.9v2c0.4-0.7,1-1.2,1.7-1.6
	c0.7-0.4,1.6-0.6,2.4-0.6c0.5,0,1,0.1,1.5,0.3c0.4,0.2,0.7,0.5,0.9,0.9c0.2,0.4,0.4,0.8,0.5,1.3c0.1,0.5,0.1,1,0.1,1.5L164,123.4z"
	/>
<path class="st0" d="M174,123.4l-3.8-9.9h2.1l2.9,8.2l2.9-8.2h2l-3.8,9.9H174z"/>
<path class="st0" d="M183.9,123.6c-0.5,0-0.9-0.1-1.3-0.2c-0.4-0.1-0.8-0.4-1.1-0.7c-0.3-0.3-0.5-0.6-0.7-1
	c-0.2-0.4-0.3-0.8-0.3-1.3c0-0.4,0.1-0.9,0.3-1.3c0.2-0.4,0.5-0.7,0.9-1c0.4-0.3,0.8-0.5,1.3-0.6c0.6-0.2,1.1-0.2,1.7-0.2
	c0.5,0,0.9,0,1.4,0.1c0.4,0.1,0.9,0.2,1.3,0.3v-0.7c0-0.6-0.2-1.3-0.6-1.7c-0.5-0.4-1.1-0.7-1.8-0.6c-0.5,0-1.1,0.1-1.6,0.3
	c-0.6,0.2-1.1,0.5-1.6,0.8l-0.6-1.3c1.2-0.8,2.6-1.3,4-1.3c1.2-0.1,2.3,0.3,3.2,1.1c0.8,0.8,1.2,1.9,1.1,3v3.6
	c0,0.4,0.2,0.7,0.5,0.7v1.8l-0.5,0.1H189c-0.3,0-0.7-0.1-0.9-0.3c-0.2-0.2-0.4-0.5-0.4-0.8l-0.1-0.6c-0.4,0.6-1,1-1.6,1.3
	C185.3,123.4,184.6,123.6,183.9,123.6z M184.4,122c0.5,0,1-0.1,1.4-0.3c0.4-0.2,0.8-0.4,1.1-0.8c0.2-0.2,0.4-0.4,0.4-0.7V119
	c-0.4-0.1-0.8-0.3-1.1-0.3c-0.4-0.1-0.8-0.1-1.2-0.1c-0.6,0-1.3,0.1-1.8,0.5c-0.4,0.3-0.7,0.7-0.7,1.3c0,0.5,0.2,1,0.6,1.3
	C183.4,121.9,183.9,122.1,184.4,122z"/>
<path class="st0" d="M202.2,122.9c-0.3,0.1-0.6,0.3-1.1,0.4c-0.5,0.2-1,0.2-1.5,0.2c-0.3,0-0.6,0-0.9-0.1c-0.3-0.1-0.5-0.2-0.8-0.4
	c-0.2-0.2-0.4-0.4-0.5-0.7c-0.1-0.3-0.2-0.7-0.2-1V115h-1.3v-1.6h1.3v-3.3h2.1v3.3h2.2v1.6h-2.2v5.6c0,0.3,0.1,0.6,0.3,0.8
	c0.2,0.2,0.5,0.3,0.7,0.2c0.3,0,0.6-0.1,0.8-0.2l0.6-0.3L202.2,122.9z"/>
<path class="st0" d="M207.8,123.6c-0.7,0-1.5-0.1-2.1-0.4c-1.2-0.5-2.2-1.5-2.6-2.8c-0.5-1.3-0.5-2.7,0-3.9c0.2-0.6,0.6-1.2,1-1.6
	c0.5-0.5,1-0.9,1.6-1.1c1.3-0.6,2.9-0.6,4.2,0c0.6,0.3,1.2,0.7,1.6,1.1c0.5,0.5,0.8,1,1,1.6c0.5,1.3,0.5,2.7,0,3.9
	c-0.2,0.6-0.6,1.2-1,1.6c-0.5,0.5-1,0.9-1.6,1.1C209.2,123.4,208.5,123.6,207.8,123.6z M204.8,118.4c0,0.5,0.1,0.9,0.2,1.3
	c0.1,0.4,0.4,0.8,0.6,1.1c0.3,0.3,0.6,0.5,0.9,0.7c0.7,0.3,1.6,0.3,2.3,0c0.4-0.2,0.7-0.4,1-0.7c0.3-0.3,0.5-0.7,0.6-1.1
	c0.3-0.9,0.3-1.8,0-2.7c-0.1-0.4-0.3-0.8-0.6-1.1c-0.3-0.3-0.6-0.5-1-0.7c-0.7-0.4-1.6-0.4-2.3,0c-0.4,0.2-0.7,0.4-0.9,0.7
	C205.1,116.7,204.8,117.5,204.8,118.4L204.8,118.4z"/>
<path class="st0" d="M217.8,123.6c-0.9,0.1-1.8-0.3-2.4-1c-0.6-0.9-0.9-2-0.8-3v-6.1h2.1v5.7c0,1.8,0.6,2.7,1.9,2.7
	c0.6,0,1.2-0.2,1.7-0.5c0.6-0.4,1-1,1.3-1.6v-6.2h2.1v7.5c0,0.2,0,0.4,0.1,0.5c0.1,0.1,0.3,0.2,0.4,0.2v1.8l-0.5,0.1h-0.4
	c-0.3,0-0.7-0.1-1-0.3c-0.3-0.2-0.4-0.5-0.4-0.8v-1c-0.4,0.7-1,1.3-1.7,1.6C219.5,123.4,218.6,123.6,217.8,123.6z"/>
<path class="st0" d="M229.9,123.6c-0.8,0-1.6-0.1-2.4-0.4c-0.7-0.2-1.4-0.6-2-1.1l0.8-1.3c0.5,0.4,1.1,0.7,1.8,1
	c0.6,0.2,1.2,0.3,1.8,0.3c0.5,0,1-0.1,1.5-0.4c0.3-0.2,0.5-0.6,0.5-1c0-0.4-0.2-0.8-0.6-0.9c-0.6-0.3-1.3-0.5-1.9-0.6
	c-0.6-0.2-1.2-0.3-1.6-0.5c-0.4-0.1-0.7-0.3-1.1-0.5c-0.3-0.2-0.5-0.5-0.7-0.8c-0.1-0.3-0.2-0.6-0.2-1c0-0.5,0.1-0.9,0.3-1.4
	c0.2-0.4,0.5-0.7,0.8-1c0.4-0.3,0.8-0.5,1.3-0.6c0.5-0.1,1-0.2,1.5-0.2c0.7,0,1.4,0.1,2.1,0.3c0.6,0.2,1.2,0.6,1.7,1l-0.9,1.3
	c-0.8-0.7-1.9-1.1-2.9-1.1c-0.5,0-0.9,0.1-1.3,0.3c-0.4,0.2-0.6,0.6-0.5,1.1c0,0.2,0,0.4,0.1,0.5c0.1,0.2,0.2,0.3,0.4,0.4
	c0.2,0.1,0.4,0.2,0.7,0.3l1,0.3c0.7,0.2,1.3,0.3,1.8,0.5c0.4,0.1,0.8,0.3,1.2,0.6c0.3,0.2,0.5,0.5,0.7,0.8c0.2,0.3,0.2,0.7,0.2,1.1
	c0,0.9-0.4,1.7-1.1,2.3C231.9,123.3,230.9,123.6,229.9,123.6z"/>
<path class="st0" d="M243,123.6c-0.5,0-0.9-0.1-1.3-0.2c-0.4-0.1-0.8-0.4-1.1-0.7c-0.3-0.3-0.5-0.6-0.7-1c-0.2-0.4-0.3-0.8-0.3-1.3
	c0-0.4,0.1-0.9,0.3-1.3c0.2-0.4,0.5-0.7,0.9-1c0.4-0.3,0.9-0.5,1.3-0.6c0.6-0.2,1.1-0.2,1.7-0.2c0.5,0,0.9,0,1.4,0.1
	c0.4,0.1,0.9,0.2,1.3,0.3v-0.7c0-0.6-0.2-1.3-0.6-1.7c-0.5-0.4-1.2-0.7-1.8-0.6c-0.5,0-1.1,0.1-1.6,0.3c-0.6,0.2-1.1,0.5-1.6,0.8
	l-0.6-1.3c1.2-0.8,2.6-1.3,4-1.3c1.2-0.1,2.3,0.3,3.2,1.1c0.8,0.8,1.2,1.9,1.1,3v3.6c0,0.4,0.2,0.7,0.6,0.7v1.8l-0.5,0.1h-0.4
	c-0.3,0-0.7-0.1-0.9-0.3c-0.2-0.2-0.4-0.5-0.4-0.8v-0.6c-0.4,0.6-1,1-1.6,1.3C244.5,123.5,243.8,123.6,243,123.6z M243.6,122
	c0.5,0,1-0.1,1.4-0.3c0.4-0.2,0.8-0.4,1.1-0.8c0.2-0.2,0.4-0.4,0.4-0.7V119c-0.7-0.3-1.5-0.4-2.3-0.4c-0.6,0-1.3,0.1-1.8,0.5
	c-0.4,0.3-0.7,0.8-0.7,1.3c0,0.5,0.2,1,0.5,1.3C242.6,121.9,243.1,122.1,243.6,122L243.6,122z"/>
<path class="st0" d="M251.1,111.8v-2.3h2.1v2.3H251.1z M251.1,123.4v-9.9h2.1v9.9H251.1z"/>
<path class="st0" d="M270.8,123.4h-2.1v-5.6c0.1-0.7-0.1-1.4-0.5-2c-0.3-0.4-0.8-0.7-1.3-0.6c-0.6,0-1.2,0.2-1.6,0.7
	c-0.5,0.5-0.9,1-1.1,1.7v5.9h-2.1v-5.6c0.1-0.7-0.1-1.4-0.5-2c-0.3-0.4-0.8-0.7-1.3-0.6c-0.6,0-1.2,0.2-1.6,0.6
	c-0.5,0.5-0.9,1-1.1,1.7v5.9h-2.1v-9.9h1.9v2c0.4-0.7,0.9-1.2,1.5-1.6c0.7-0.4,1.4-0.6,2.2-0.6c1.4-0.1,2.6,0.9,2.8,2.3
	c0.4-0.7,0.9-1.3,1.6-1.7c0.7-0.4,1.4-0.6,2.2-0.6c0.5,0,1,0.1,1.4,0.3c0.4,0.2,0.7,0.5,0.9,0.9c0.2,0.4,0.4,0.8,0.5,1.3
	c0.1,0.5,0.1,1,0.1,1.5L270.8,123.4z"/>
<path class="st0" d="M277.8,123.6c-0.7,0-1.4-0.1-2.1-0.4c-0.6-0.3-1.2-0.6-1.6-1.1c-0.5-0.5-0.8-1-1.1-1.6c-0.5-1.3-0.5-2.7,0-4
	c0.2-0.6,0.6-1.2,1.1-1.7c0.5-0.5,1-0.9,1.6-1.1c0.7-0.3,1.4-0.4,2.1-0.4c1.4,0,2.7,0.5,3.7,1.5c0.4,0.5,0.8,1,1,1.6
	c0.2,0.6,0.3,1.3,0.3,1.9c0,0.2,0,0.3,0,0.4s0,0.2,0,0.3h-8c0,0.4,0.1,0.8,0.3,1.2c0.2,0.3,0.4,0.7,0.7,0.9c0.3,0.3,0.6,0.5,0.9,0.6
	c0.3,0.1,0.7,0.2,1.1,0.2c0.3,0,0.6,0,0.8-0.1c0.3-0.1,0.5-0.2,0.7-0.3c0.2-0.1,0.4-0.3,0.6-0.5c0.2-0.2,0.3-0.4,0.4-0.6l1.8,0.5
	c-0.4,0.8-1,1.4-1.7,1.8C279.7,123.4,278.8,123.6,277.8,123.6z M280.8,117.7c0-0.4-0.1-0.8-0.3-1.2c-0.2-0.3-0.4-0.6-0.7-0.9
	c-0.3-0.2-0.6-0.4-0.9-0.6c-0.4-0.1-0.7-0.2-1.1-0.2c-0.4,0-0.8,0.1-1.1,0.2c-0.3,0.1-0.7,0.3-0.9,0.6c-0.3,0.3-0.5,0.6-0.6,0.9
	c-0.2,0.4-0.3,0.8-0.3,1.2H280.8z"/>
<path class="st0" d="M290.2,115.2c-0.8,0-1.5,0.2-2.2,0.6c-0.6,0.3-1.1,0.8-1.3,1.5v6.1h-2.1v-9.9h1.9v2.2c0.3-0.6,0.8-1.2,1.3-1.6
	c0.5-0.4,1.1-0.6,1.8-0.7h0.3h0.2V115.2z"/>
<path class="st1" d="M147.2,88.5l2.1-2.1c0.2-0.2,0.6-0.2,0.8,0c0.4,0.4,1,0.7,1.6,0.7c0.9,0,1.9-0.3,1.9-2.1V69.9
	c0-0.3,0.3-0.6,0.6-0.6h3.8c0.3,0,0.6,0.3,0.6,0.6V85c0,3.6-2.9,6.5-6.5,6.6c-1.9,0-3.8-0.8-5-2.3C147,89,147,88.7,147.2,88.5"/>
<path class="st1" d="M161.8,73.9c0-0.3,0.3-0.6,0.6-0.6l0,0h13c0.3,0,0.6,0.3,0.6,0.6c0,0,0,0,0,0v3.4c0,0.3-0.2,0.6-0.6,0.6
	c0,0,0,0,0,0h-8.7v3.9h7.1c0.3,0,0.6,0.3,0.6,0.6v3.4c0,0.3-0.3,0.6-0.6,0.6h-7.1v4.3h8.7c0.3,0,0.6,0.3,0.6,0.6c0,0,0,0,0,0v3.4
	c0,0.3-0.3,0.6-0.6,0.6h-13c-0.3,0-0.6-0.3-0.6-0.6V73.9z"/>
<path class="st1" d="M179.2,71.1c0-0.3,0.3-0.6,0.6-0.6h3.8c0.3,0,0.6,0.3,0.6,0.6v13.1c-0.1,1.9,1.5,3.5,3.4,3.6c0.1,0,0.3,0,0.4,0
	c1.9,0.2,3.7-1.2,3.9-3.1c0-0.2,0-0.3,0-0.5V71.1c0-0.3,0.3-0.6,0.6-0.6h3.8c0.3,0,0.6,0.3,0.6,0.6v13.3c0,4.8-4,8.3-9,8.3
	c-4.7,0.2-8.7-3.5-8.9-8.2c0-0.1,0-0.1,0-0.2L179.2,71.1z"/>
<path class="st1" d="M200,69.8c0-0.3,0.2-0.6,0.6-0.6c0,0,0.1,0,0.1,0h0.5c0.3,0,0.5,0.2,0.8,0.5l12,11.6l0,0V70.1
	c0-0.3,0.3-0.6,0.6-0.6l0,0h3.8c0.3,0,0.6,0.3,0.6,0.6v21.1c0,0.3-0.2,0.6-0.5,0.6c0,0,0,0-0.1,0H218c-0.3,0-0.6-0.1-0.8-0.3
	L205,79.1l0,0v11.7c0,0.3-0.2,0.6-0.6,0.6c0,0,0,0,0,0h-3.8c-0.3,0-0.6-0.3-0.6-0.6L200,69.8z"/>
<path class="st1" d="M221.6,71.4c0-0.3,0.3-0.6,0.6-0.6l0,0h13c0.3,0,0.6,0.3,0.6,0.6c0,0,0,0,0,0v3.4c0,0.3-0.3,0.6-0.6,0.6h-8.7
	v3.8h7.1c0.3,0,0.6,0.3,0.6,0.6v3.4c0,0.3-0.2,0.6-0.6,0.6c0,0,0,0,0,0h-7.1v4.3h8.7c0.3,0,0.6,0.3,0.6,0.6v3.4
	c0,0.3-0.2,0.6-0.6,0.6c0,0,0,0,0,0h-13c-0.3,0-0.6-0.3-0.6-0.6l0,0L221.6,71.4z"/>
<path class="st1" d="M238.4,89.3c-0.3-0.2-0.3-0.6-0.1-0.9l1.4-2.5c0.2-0.3,0.6-0.4,1-0.2c0,0,0,0,0.1,0c1.2,1,2.8,1.6,4.4,1.8
	c1.1,0.1,2-0.7,2.1-1.7c0,0,0,0,0-0.1c0-1.3-1.1-2.1-3.1-3.1c-3-1.4-5.9-3.1-5.9-6.8c0-3,2.3-6.1,7.1-6.1c2.4,0.1,4.7,0.9,6.6,2.3
	c0.3,0.2,0.4,0.7,0.2,1l-1.6,2.4c-0.3,0.4-0.9,0.5-1.3,0.2c0,0,0,0,0,0c-1.2-0.9-2.6-1.5-4.1-1.7c-0.9-0.1-1.7,0.5-1.9,1.4
	c0,0.1,0,0.1,0,0.2c0,1,1.2,1.8,3.3,2.9c2.7,1.3,6.2,2.8,6.2,7c0,3.1-2.7,6.3-7.2,6.3C242.7,91.8,240.3,91,238.4,89.3"/>
<path class="st2" d="M141.4,80c0,37.7-30.6,68.3-68.3,68.3S4.8,117.7,4.8,79.9c0-37.7,30.6-68.3,68.3-68.3
	C110.9,11.6,141.4,42.2,141.4,80C141.4,80,141.4,80,141.4,80"/>
<path class="st0" d="M31.4,80c-0.1-1.3-1.3-2.3-2.6-2.2c-1.3,0-2.5,0.9-2.7,2.2H31.4z M25.1,71.1l-0.9-1.6c-0.1-0.3,0-0.6,0.2-0.7
	l6.6-4c0.2-0.2,0.8-0.2,1,0.1l1.3,2.3c0.3,0.4,0.2,0.9-0.2,1.1c0,0,0,0-0.1,0l-7,3.2c-0.3,0.2-0.7,0.2-0.9-0.1
	C25.2,71.3,25.2,71.2,25.1,71.1 M29,73c4.6-0.1,8.4,3.6,8.5,8.2c0,0.1,0,0.1,0,0.2c0,0.3,0,0.9-0.1,1.2c-0.1,0.4-0.4,0.8-0.8,0.8
	H25.5c0.2,1.9,1.8,3.3,3.7,3.1c0,0,0,0,0,0c1.2-0.1,2.4-0.4,3.4-1.1c0.2-0.3,0.7-0.4,1-0.1c0,0,0.1,0.1,0.1,0.1l2,2.5
	c0.3,0.4,0.3,0.9,0,1.3c-3.9,3.6-9.9,3.4-13.5-0.5c-1.6-1.7-2.5-4-2.6-6.3C19.6,77.2,23.8,73,29,73C28.9,73,29,73,29,73"/>
<path class="st0" d="M40,74.3c0-0.5,0.4-0.8,0.8-0.8c0,0,0,0,0,0h1.8c0.3,0,0.6,0.2,0.8,0.5l0.7,1.8c1.3-1.8,3.4-2.8,5.6-2.7
	c5.6,0,7.5,4,7.5,8.9v8.6c0,0.5-0.4,0.8-0.8,0.8h-4.3c-0.5,0-0.8-0.4-0.8-0.8c0,0,0,0,0,0v-8.7c0-1.7-0.6-3.3-2.5-3.3
	c-1.8,0-2.7,1.3-2.7,3.1v8.9c0,0.4-0.3,0.8-0.7,0.8c0,0-0.1,0-0.1,0h-4.4c-0.5,0-0.8-0.4-0.8-0.8L40,74.3z"/>
<path class="st0" d="M71.4,80c-0.1-1.3-1.2-2.3-2.5-2.2c-1.3-0.1-2.5,0.9-2.8,2.2H71.4z M69,73c4.6-0.1,8.4,3.6,8.5,8.2
	c0,0.1,0,0.1,0,0.2c0,0.3,0,0.9-0.1,1.2c-0.1,0.4-0.4,0.8-0.9,0.8h-11c0.2,1.9,1.8,3.3,3.7,3.1c0,0,0,0,0,0c1.2-0.1,2.4-0.4,3.4-1.1
	c0.2-0.3,0.7-0.4,1-0.1c0,0,0.1,0.1,0.1,0.1l2,2.5c0.3,0.4,0.3,0.9,0,1.3c-3.8,3.6-9.9,3.4-13.5-0.4c-1.6-1.7-2.6-4-2.6-6.4
	C59.7,77.3,63.8,73.1,69,73C69,73,69,73,69,73"/>
<path class="st0" d="M80,74.3c0-0.5,0.4-0.8,0.8-0.9c0,0,0,0,0,0h1.9c0.4,0,0.7,0.2,0.8,0.5l0.8,2c0.8-1.8,2.5-2.9,4.5-2.9
	c1.2-0.1,2.4,0.3,3.5,0.9c0.3,0.2,0.3,0.7,0.1,1l-1.8,3.5c-0.1,0.4-0.6,0.6-1,0.4c0,0,0,0,0,0c-0.4-0.1-0.9-0.2-1.4-0.3
	c-1.3,0-2.3,1-2.4,2.2c0,0.1,0,0.2,0,0.3v9.4c0,0.5-0.3,0.8-1,0.8h-4.1c-0.5,0-0.8-0.4-0.9-0.8V74.3z"/>
<path class="st0" d="M102.5,86.2c2.1,0,3.8-1.7,3.8-3.8s-1.7-3.8-3.8-3.8c-2.1,0-3.8,1.7-3.8,3.8S100.4,86.2,102.5,86.2 M111.7,90.8
	c0,6.5-4.2,9.5-9.6,9.5c-2.4,0-4.7-0.7-6.7-1.9c-0.3-0.3-0.4-0.7-0.2-1l1.3-3.3c0.2-0.4,0.6-0.5,1-0.4c0,0,0,0,0,0
	c1.3,0.9,2.8,1.4,4.4,1.4c2.2,0,3.8-0.9,3.8-3.6v-0.9c-1.3,0.7-2.7,1.1-4.1,1.1c-4.8,0-8.9-3.1-8.9-9.4c-0.2-5,3.7-9.1,8.7-9.3
	c0.1,0,0.1,0,0.2,0c2.3,0,4.5,1,6.1,2.8l0.5-1.5c0.2-0.5,0.5-0.9,0.9-0.9h1.8c0.5,0,0.8,0.4,0.8,0.8L111.7,90.8z"/>
<path class="st0" d="M115.5,74.3c0-0.5,0.3-0.8,0.8-0.8c0,0,0,0,0.1,0h4.2c0.5,0,0.8,0.4,0.8,0.8c0,0,0,0,0,0v16.2
	c0,0.5-0.4,0.8-0.8,0.8h-4.2c-0.5,0-0.8-0.4-0.8-0.8V74.3z M115,67.6c0-1.9,1.5-3.4,3.3-3.4c1.9,0,3.4,1.5,3.4,3.3
	c0,1.9-1.5,3.4-3.3,3.4c0,0,0,0-0.1,0C116.5,71,115,69.5,115,67.6"/>
<path class="st0" d="M135.9,80c-0.1-1.3-1.3-2.3-2.6-2.2c-1.3,0-2.5,0.9-2.7,2.2H135.9z M133.4,73c4.6-0.1,8.4,3.6,8.5,8.2
	c0,0.1,0,0.1,0,0.2c0,0.3,0,0.9-0.1,1.2c-0.1,0.4-0.4,0.8-0.9,0.8h-11c0.2,1.9,1.8,3.3,3.7,3.1c0,0,0,0,0,0c1.2-0.1,2.4-0.4,3.4-1.1
	c0.2-0.3,0.7-0.4,1-0.1c0,0,0.1,0.1,0.1,0.1l2,2.5c0.3,0.4,0.3,0.9,0,1.3c-3.8,3.6-9.9,3.4-13.5-0.5c-1.6-1.7-2.5-4-2.6-6.4
	C124.1,77.2,128.3,73.1,133.4,73"/>
<path class="st1" d="M139.4,8.8c-11,0-20.7,6.9-24.4,17.2c11.4,8.8,19.7,21.1,23.8,34.9h0.7c14.4-0.4,25.6-12.5,25.2-26.8
	C164.2,20.4,153.1,9.3,139.4,8.8"/>
<path class="st3" d="M115,26c-4.9,13.5,2.1,28.5,15.6,33.4c2.6,1,5.4,1.5,8.2,1.5C134.7,47.1,126.4,34.8,115,26"/>
<path class="st0" d="M124.6,144.6c-0.4,0-0.9-0.1-1.3-0.2c-0.4-0.1-0.8-0.4-1.1-0.7c-0.3-0.3-0.5-0.6-0.7-1
	c-0.2-0.4-0.3-0.8-0.3-1.3c0-0.4,0.1-0.9,0.3-1.3c0.2-0.4,0.5-0.7,0.9-1c0.4-0.3,0.8-0.5,1.3-0.6c0.6-0.2,1.1-0.2,1.7-0.2
	c0.5,0,0.9,0,1.4,0.1c0.4,0.1,0.9,0.2,1.3,0.3v-0.7c0-0.6-0.2-1.3-0.6-1.7c-0.5-0.4-1.2-0.7-1.8-0.6c-0.5,0-1.1,0.1-1.6,0.3
	c-0.6,0.2-1.1,0.5-1.6,0.8l-0.6-1.3c1.2-0.8,2.6-1.3,4-1.3c1.2-0.1,2.3,0.3,3.2,1c0.8,0.8,1.2,1.9,1.1,3v3.6c0,0.4,0.2,0.7,0.6,0.7
	v1.8l-0.5,0.1h-0.4c-0.3,0-0.7-0.1-1-0.3c-0.2-0.2-0.4-0.5-0.4-0.8v-0.6c-0.4,0.6-1,1-1.6,1.3C126.1,144.5,125.4,144.6,124.6,144.6z
	 M125.2,143c0.5,0,1-0.1,1.4-0.3c0.4-0.2,0.8-0.4,1.1-0.8c0.2-0.2,0.4-0.4,0.4-0.7V140c-0.4-0.1-0.7-0.2-1.1-0.3
	c-0.4-0.1-0.8-0.1-1.2-0.1c-0.6,0-1.3,0.1-1.8,0.5c-0.4,0.3-0.7,0.8-0.7,1.3c0,0.5,0.2,0.9,0.5,1.3
	C124.2,142.9,124.7,143.1,125.2,143z"/>
<path class="st0" d="M138.3,144.6c-0.7,0-1.5-0.2-2.1-0.6c-0.6-0.4-1.1-0.9-1.4-1.5v5.9h-2.1v-14h1.8v1.8c0.4-0.6,0.9-1.1,1.5-1.4
	c0.6-0.4,1.3-0.5,2.1-0.5c0.6,0,1.3,0.1,1.9,0.4c0.6,0.3,1.1,0.7,1.5,1.1c0.4,0.5,0.8,1,1,1.6c0.2,0.6,0.4,1.3,0.4,2
	c0,0.7-0.1,1.4-0.3,2c-0.2,0.6-0.5,1.2-0.9,1.6c-0.4,0.5-0.9,0.8-1.4,1.1C139.6,144.5,139,144.6,138.3,144.6z M137.7,142.8
	c0.4,0,0.8-0.1,1.2-0.3c0.4-0.2,0.7-0.4,0.9-0.8c0.3-0.3,0.5-0.7,0.6-1.1c0.1-0.4,0.2-0.8,0.2-1.3c0-0.4-0.1-0.9-0.2-1.3
	c-0.2-0.4-0.4-0.7-0.6-1.1c-0.3-0.3-0.6-0.5-1-0.7c-0.4-0.2-0.8-0.3-1.3-0.3c-0.3,0-0.6,0.1-0.8,0.2c-0.3,0.1-0.6,0.2-0.8,0.4
	c-0.3,0.2-0.5,0.4-0.7,0.6c-0.2,0.2-0.3,0.5-0.4,0.8v2.6c0.1,0.3,0.3,0.6,0.5,0.8c0.2,0.3,0.4,0.5,0.7,0.7c0.2,0.2,0.5,0.3,0.8,0.5
	C137,142.7,137.4,142.8,137.7,142.8L137.7,142.8z"/>
<path class="st0" d="M150.3,144.6c-0.7,0-1.5-0.2-2.1-0.6c-0.6-0.4-1.1-0.9-1.4-1.5v5.9h-2.1v-14h1.8v1.8c0.4-0.6,0.9-1.1,1.5-1.4
	c0.6-0.4,1.3-0.5,2-0.5c0.6,0,1.3,0.1,1.9,0.4c0.6,0.3,1.1,0.7,1.5,1.1c0.4,0.5,0.8,1,1,1.6c0.2,0.6,0.3,1.3,0.3,2
	c0,0.7-0.1,1.4-0.3,2c-0.2,0.6-0.5,1.2-0.9,1.6c-0.4,0.5-0.9,0.8-1.4,1.1C151.5,144.5,150.9,144.6,150.3,144.6z M149.6,142.8
	c0.4,0,0.9-0.1,1.3-0.3c0.4-0.2,0.7-0.4,0.9-0.8c0.3-0.3,0.5-0.7,0.6-1.1c0.1-0.4,0.2-0.8,0.2-1.3c0-0.4-0.1-0.9-0.2-1.3
	c-0.1-0.4-0.4-0.8-0.6-1.1c-0.6-0.6-1.4-1-2.2-1c-0.3,0-0.6,0.1-0.8,0.2c-0.3,0.1-0.6,0.2-0.8,0.4c-0.3,0.2-0.5,0.4-0.7,0.6
	c-0.2,0.2-0.3,0.5-0.4,0.8v2.6c0.3,0.6,0.7,1.1,1.2,1.5c0.2,0.2,0.5,0.3,0.8,0.5C149,142.7,149.3,142.8,149.6,142.8L149.6,142.8z"/>
<path class="st0" d="M162.2,136.3c-0.8,0-1.5,0.2-2.2,0.6c-0.6,0.3-1.1,0.9-1.3,1.5v6.1h-2.1v-10h1.9v2.2c0.3-0.6,0.8-1.2,1.3-1.6
	c0.5-0.4,1.1-0.6,1.8-0.7h0.5V136.3z"/>
<path class="st0" d="M167.9,144.6c-0.7,0-1.4-0.1-2.1-0.4c-0.6-0.3-1.2-0.6-1.6-1.1c-0.5-0.5-0.8-1-1.1-1.6c-0.2-0.6-0.4-1.3-0.4-2
	c0-0.7,0.1-1.4,0.4-2c0.2-0.6,0.6-1.2,1.1-1.6c0.5-0.5,1-0.9,1.6-1.1c0.7-0.3,1.4-0.4,2.1-0.4c0.7,0,1.4,0.1,2.1,0.4
	c0.6,0.3,1.1,0.6,1.6,1.1c0.4,0.5,0.8,1,1,1.6c0.2,0.6,0.3,1.3,0.3,1.9c0,0.2,0,0.3,0,0.4s0,0.2,0,0.3h-8c0,0.4,0.1,0.9,0.3,1.3
	c0.2,0.3,0.4,0.7,0.7,0.9c0.3,0.3,0.6,0.5,0.9,0.6c0.3,0.1,0.7,0.2,1.1,0.2c0.3,0,0.6,0,0.8-0.1c0.3-0.1,0.5-0.2,0.7-0.3
	c0.2-0.1,0.4-0.3,0.6-0.5c0.2-0.2,0.3-0.4,0.4-0.6l1.8,0.5c-0.4,0.8-1,1.4-1.7,1.8C169.9,144.4,168.9,144.6,167.9,144.6z M171,138.7
	c0-0.4-0.1-0.8-0.3-1.2c-0.3-0.7-0.9-1.2-1.6-1.5c-0.4-0.1-0.7-0.2-1.1-0.2c-0.4,0-0.8,0.1-1.1,0.2c-0.7,0.3-1.3,0.8-1.6,1.5
	c-0.2,0.4-0.3,0.8-0.3,1.2H171z"/>
<path class="st0" d="M183.7,144.4h-2.1v-5.6c0.1-0.7-0.1-1.4-0.5-2c-0.3-0.4-0.8-0.6-1.3-0.6c-0.3,0-0.6,0.1-0.9,0.2
	c-0.3,0.1-0.6,0.3-0.8,0.5c-0.3,0.2-0.5,0.5-0.7,0.7c-0.2,0.3-0.4,0.6-0.5,0.9v5.9h-2.2v-10h1.9v2c0.4-0.7,1-1.2,1.7-1.6
	c0.7-0.4,1.6-0.6,2.4-0.6c0.5,0,1,0.1,1.5,0.3c0.4,0.2,0.7,0.5,0.9,0.9c0.2,0.4,0.4,0.8,0.5,1.3c0.1,0.5,0.1,1,0.1,1.5V144.4z"/>
<path class="st0" d="M190.2,144.6c-0.6,0-1.3-0.1-1.9-0.4c-0.6-0.3-1.1-0.7-1.5-1.1c-0.4-0.5-0.8-1-1-1.6c-0.5-1.3-0.5-2.7,0-4
	c0.2-0.6,0.5-1.1,0.9-1.6c0.4-0.5,0.9-0.8,1.4-1.1c0.6-0.3,1.2-0.4,1.8-0.4c0.7,0,1.5,0.2,2.1,0.6c0.6,0.4,1.1,0.9,1.4,1.5v-5.8h2.1
	v11.4c0,0.2,0,0.4,0.1,0.5c0.1,0.1,0.3,0.2,0.4,0.2v1.8l-0.5,0.1h-0.3c-0.4,0-0.7-0.1-1-0.3c-0.3-0.2-0.4-0.5-0.4-0.8v-0.7
	c-0.4,0.6-0.9,1.1-1.5,1.5C191.7,144.4,190.9,144.6,190.2,144.6z M190.7,142.8c0.3,0,0.6-0.1,0.9-0.2c0.3-0.1,0.6-0.2,0.8-0.4
	c0.2-0.2,0.5-0.4,0.6-0.6c0.2-0.2,0.3-0.5,0.4-0.8v-2.6c-0.1-0.3-0.3-0.6-0.5-0.9c-0.2-0.3-0.4-0.5-0.7-0.7
	c-0.3-0.2-0.5-0.3-0.8-0.4c-0.3-0.1-0.6-0.2-0.9-0.2c-0.4,0-0.8,0.1-1.2,0.3c-0.3,0.2-0.7,0.4-0.9,0.8c-0.3,0.3-0.5,0.7-0.6,1.1
	c-0.2,0.4-0.2,0.8-0.2,1.3c0,0.4,0.1,0.9,0.2,1.3c0.2,0.4,0.4,0.8,0.7,1.1c0.3,0.3,0.6,0.5,1,0.7
	C189.9,142.7,190.3,142.8,190.7,142.8z"/>
<path class="st0" d="M203.8,136.3c-0.8,0-1.5,0.2-2.2,0.6c-0.6,0.3-1.1,0.9-1.3,1.5v6.1h-2.1v-10h1.9v2.2c0.3-0.6,0.7-1.2,1.3-1.6
	c0.5-0.4,1.1-0.6,1.8-0.7h0.5L203.8,136.3z"/>
<path class="st0" d="M209.5,144.6c-0.7,0-1.4-0.1-2.1-0.4c-0.6-0.3-1.2-0.6-1.6-1.1c-0.5-0.5-0.8-1-1-1.6c-0.3-0.6-0.4-1.3-0.4-2
	c0-0.7,0.1-1.4,0.4-2c0.2-0.6,0.6-1.2,1-1.6c0.5-0.5,1-0.9,1.6-1.1c0.7-0.3,1.4-0.4,2.1-0.4c0.7,0,1.4,0.1,2.1,0.4
	c0.6,0.3,1.2,0.6,1.6,1.1c0.4,0.5,0.8,1,1,1.6c0.2,0.6,0.4,1.3,0.4,1.9c0,0.2,0,0.3,0,0.4s0,0.2,0,0.3h-8c0,0.4,0.1,0.9,0.3,1.3
	c0.2,0.3,0.4,0.7,0.7,0.9c0.3,0.3,0.6,0.5,0.9,0.6c0.3,0.1,0.7,0.2,1.1,0.2c0.3,0,0.6,0,0.8-0.1c0.3-0.1,0.5-0.2,0.7-0.3
	c0.2-0.1,0.4-0.3,0.6-0.5c0.2-0.2,0.3-0.4,0.4-0.6l1.8,0.5c-0.4,0.8-1,1.4-1.7,1.8C211.5,144.4,210.5,144.6,209.5,144.6z
	 M212.5,138.7c0-0.4-0.1-0.8-0.3-1.2c-0.2-0.3-0.4-0.6-0.7-0.9c-0.3-0.3-0.6-0.5-0.9-0.6c-0.7-0.3-1.5-0.3-2.2,0
	c-0.3,0.1-0.7,0.3-0.9,0.6c-0.3,0.3-0.5,0.6-0.6,0.9c-0.2,0.4-0.3,0.8-0.3,1.2H212.5z"/>
<path class="st0" d="M221.5,139.6v-8.9h2.1v8.9H221.5z M221.5,144.4v-2.6h2.1v2.6H221.5z"/>
</svg>
