<svg xmlns="http://www.w3.org/2000/svg" width="179.428" height="85.985" viewBox="0 0 179.428 85.985">
  <g id="Groupe_526" data-name="Groupe 526" transform="translate(-288.029 -708.937)">
    <g id="Groupe_527" data-name="Groupe 527" transform="translate(376.182 769.642)">
      <g id="Groupe_526-2" data-name="Groupe 526">
        <path id="Tracé_1115" data-name="Tracé 1115" d="M404.562,795.444a3.8,3.8,0,0,1-1.643-.329,3.06,3.06,0,0,1-1.138-.909,3.935,3.935,0,0,1-.663-1.373,6.5,6.5,0,0,1-.217-1.731,6.637,6.637,0,0,1,.217-1.743,3.994,3.994,0,0,1,.663-1.39,3.044,3.044,0,0,1,1.138-.915,4.271,4.271,0,0,1,3.286,0,3.044,3.044,0,0,1,1.138.915,4.01,4.01,0,0,1,.663,1.39,6.7,6.7,0,0,1,.217,1.743,6.565,6.565,0,0,1-.217,1.731,3.951,3.951,0,0,1-.663,1.373,3.059,3.059,0,0,1-1.138.909A3.8,3.8,0,0,1,404.562,795.444Zm0-1.432q1.819,0,1.819-2.91a4.3,4.3,0,0,0-.44-2.183,1.484,1.484,0,0,0-1.367-.728q-1.842,0-1.842,2.91T404.562,794.013Z" transform="translate(-400.748 -786.572)" fill="#fff"/>
        <path id="Tracé_1116" data-name="Tracé 1116" d="M412.243,789.9a2.99,2.99,0,0,1,.328-.052,3.243,3.243,0,0,1,.364-.018,2.92,2.92,0,0,1,.352.018,3.175,3.175,0,0,1,.318.052.674.674,0,0,1,.064.17c.02.074.038.153.053.235s.029.163.041.241.021.145.03.2a2.836,2.836,0,0,1,.281-.352,2.035,2.035,0,0,1,.383-.317,2.008,2.008,0,0,1,.487-.228,1.9,1.9,0,0,1,.6-.088,2.022,2.022,0,0,1,1.556.563,2.548,2.548,0,0,1,.522,1.772v3.872a4.968,4.968,0,0,1-1.666,0v-3.427a2,2,0,0,0-.193-.973.712.712,0,0,0-.676-.34,1.528,1.528,0,0,0-.41.059.851.851,0,0,0-.381.228,1.223,1.223,0,0,0-.276.476,2.469,2.469,0,0,0-.106.8v3.18a4.963,4.963,0,0,1-1.666,0Z" transform="translate(-403.217 -787.232)" fill="#fff"/>
        <path id="Tracé_1117" data-name="Tracé 1117" d="M423.672,789.927a3.376,3.376,0,0,1,.522-.07c.16-.008.3-.012.417-.012q.235,0,.469.012a2.43,2.43,0,0,1,.434.059l1.326,4.518,1.3-4.518a4.23,4.23,0,0,1,.422-.052c.149-.013.3-.018.446-.018.117,0,.253,0,.405.012a3.66,3.66,0,0,1,.522.07l-2.3,6.055a4.335,4.335,0,0,1-.469.048c-.164.008-.3.011-.411.011s-.25,0-.4-.011a2.458,2.458,0,0,1-.422-.059Z" transform="translate(-405.704 -787.252)" fill="#fff"/>
        <path id="Tracé_1118" data-name="Tracé 1118" d="M435.886,791.973a.971.971,0,0,0-.094-.458.7.7,0,0,0-.258-.276,1.072,1.072,0,0,0-.4-.135,3.724,3.724,0,0,0-.534-.035,4.16,4.16,0,0,0-1.35.246,3.165,3.165,0,0,1-.246-.575,2.231,2.231,0,0,1-.083-.645,6.217,6.217,0,0,1,1.034-.258,6.125,6.125,0,0,1,.961-.082,2.845,2.845,0,0,1,1.907.587,2.341,2.341,0,0,1,.687,1.877v3.521a9.828,9.828,0,0,1-1,.247,6.851,6.851,0,0,1-1.326.117,5.291,5.291,0,0,1-1.1-.106,2.352,2.352,0,0,1-.857-.351,1.66,1.66,0,0,1-.552-.635,2.11,2.11,0,0,1-.193-.95,1.737,1.737,0,0,1,.24-.945,1.848,1.848,0,0,1,.622-.61,2.751,2.751,0,0,1,.85-.329,4.512,4.512,0,0,1,.939-.1c.227,0,.478.012.751.035Zm0,1.209c-.094-.016-.2-.03-.3-.042a2.838,2.838,0,0,0-.293-.018,1.73,1.73,0,0,0-.91.206.717.717,0,0,0-.334.663.741.741,0,0,0,.129.469.753.753,0,0,0,.311.241,1.278,1.278,0,0,0,.387.094c.137.012.257.018.358.018a2.15,2.15,0,0,0,.353-.03c.117-.02.218-.037.3-.053Z" transform="translate(-407.622 -787.232)" fill="#fff"/>
        <path id="Tracé_1119" data-name="Tracé 1119" d="M444.374,790.709h-.763l-.059-.235,2.194-2.8h.27v1.772h1.42a2.838,2.838,0,0,1,.047.317q.012.141.012.293t-.012.317a3.2,3.2,0,0,1-.047.34h-1.42v2.382a2.369,2.369,0,0,0,.059.587.884.884,0,0,0,.17.353.56.56,0,0,0,.276.175,1.415,1.415,0,0,0,.387.048,2.019,2.019,0,0,0,.346-.03c.113-.02.214-.037.3-.053a2.318,2.318,0,0,1,.117.464,3,3,0,0,1,.035.429c0,.085,0,.158-.005.217s-.01.116-.018.17a4.775,4.775,0,0,1-1.114.129,2.383,2.383,0,0,1-1.631-.5,2.07,2.07,0,0,1-.564-1.626Z" transform="translate(-410.031 -786.778)" fill="#fff"/>
        <path id="Tracé_1120" data-name="Tracé 1120" d="M452.687,796.1a3.179,3.179,0,0,1-1.285-.241,2.438,2.438,0,0,1-.9-.669,2.9,2.9,0,0,1-.54-1,4.111,4.111,0,0,1-.182-1.244,4.215,4.215,0,0,1,.182-1.256,2.891,2.891,0,0,1,.54-1.015,2.494,2.494,0,0,1,.9-.674,3.1,3.1,0,0,1,1.285-.246,3.147,3.147,0,0,1,1.292.246,2.544,2.544,0,0,1,.915.674,2.78,2.78,0,0,1,.539,1.015,4.318,4.318,0,0,1,.177,1.256,4.211,4.211,0,0,1-.177,1.244,2.789,2.789,0,0,1-.539,1,2.487,2.487,0,0,1-.915.669A3.228,3.228,0,0,1,452.687,796.1Zm0-1.267a1.013,1.013,0,0,0,.945-.487,3.559,3.559,0,0,0,0-2.8,1.012,1.012,0,0,0-.945-.487,1,1,0,0,0-.933.487,3.569,3.569,0,0,0,0,2.8A1,1,0,0,0,452.687,794.836Z" transform="translate(-411.386 -787.232)" fill="#fff"/>
        <path id="Tracé_1121" data-name="Tracé 1121" d="M458.879,789.915a4.964,4.964,0,0,1,1.666,0v3.215a3.361,3.361,0,0,0,.077.792,1.15,1.15,0,0,0,.235.493.854.854,0,0,0,.393.258,1.794,1.794,0,0,0,.552.076,2.744,2.744,0,0,0,.727-.081v-4.753a5,5,0,0,1,.821-.07,5.062,5.062,0,0,1,.833.07v5.832a7.841,7.841,0,0,1-.991.253,6.537,6.537,0,0,1-1.285.124,6.832,6.832,0,0,1-1.149-.094,2.248,2.248,0,0,1-.969-.4,2.064,2.064,0,0,1-.662-.892,4.083,4.083,0,0,1-.247-1.561Z" transform="translate(-413.367 -787.252)" fill="#fff"/>
        <path id="Tracé_1122" data-name="Tracé 1122" d="M468.849,793.322a2.322,2.322,0,0,1-1.027-.557,1.51,1.51,0,0,1-.369-1.109,1.68,1.68,0,0,1,.639-1.4,2.742,2.742,0,0,1,1.743-.5,4.973,4.973,0,0,1,.9.082,5.768,5.768,0,0,1,.9.246,3.2,3.2,0,0,1-.117.634,3.038,3.038,0,0,1-.223.575,4.633,4.633,0,0,0-.622-.206,2.85,2.85,0,0,0-.716-.088,1.3,1.3,0,0,0-.622.123.417.417,0,0,0-.223.394.4.4,0,0,0,.159.364,1.831,1.831,0,0,0,.451.2l.669.2a3.28,3.28,0,0,1,.592.229,1.641,1.641,0,0,1,.452.334,1.423,1.423,0,0,1,.293.494,2.126,2.126,0,0,1,.106.716,1.827,1.827,0,0,1-.182.809,1.879,1.879,0,0,1-.528.652,2.618,2.618,0,0,1-.839.434,3.635,3.635,0,0,1-1.115.159q-.282,0-.516-.018a4.233,4.233,0,0,1-.452-.059c-.145-.027-.287-.061-.428-.1a4.732,4.732,0,0,1-.458-.153,3.442,3.442,0,0,1,.111-.639,4.019,4.019,0,0,1,.229-.627,4.88,4.88,0,0,0,.734.228,3.342,3.342,0,0,0,.721.077,2.421,2.421,0,0,0,.358-.03,1.311,1.311,0,0,0,.358-.106.846.846,0,0,0,.275-.2.458.458,0,0,0,.112-.322.467.467,0,0,0-.17-.405,1.653,1.653,0,0,0-.476-.217Z" transform="translate(-415.205 -787.232)" fill="#fff"/>
        <path id="Tracé_1123" data-name="Tracé 1123" d="M481.2,791.973a.97.97,0,0,0-.094-.458.7.7,0,0,0-.258-.276,1.077,1.077,0,0,0-.405-.135,3.7,3.7,0,0,0-.534-.035,4.153,4.153,0,0,0-1.35.246,3.178,3.178,0,0,1-.246-.575,2.232,2.232,0,0,1-.082-.645,6.209,6.209,0,0,1,1.033-.258,6.142,6.142,0,0,1,.962-.082,2.843,2.843,0,0,1,1.907.587,2.341,2.341,0,0,1,.687,1.877v3.521a9.756,9.756,0,0,1-1,.247,6.857,6.857,0,0,1-1.326.117,5.3,5.3,0,0,1-1.1-.106,2.352,2.352,0,0,1-.857-.351,1.667,1.667,0,0,1-.552-.635,2.11,2.11,0,0,1-.193-.95,1.737,1.737,0,0,1,.241-.945,1.848,1.848,0,0,1,.622-.61,2.744,2.744,0,0,1,.85-.329,4.507,4.507,0,0,1,.939-.1q.34,0,.751.035Zm0,1.209c-.094-.016-.2-.03-.305-.042a2.814,2.814,0,0,0-.293-.018,1.731,1.731,0,0,0-.91.206.718.718,0,0,0-.334.663.741.741,0,0,0,.129.469.76.76,0,0,0,.311.241,1.266,1.266,0,0,0,.386.094c.137.012.257.018.358.018a2.142,2.142,0,0,0,.352-.03c.117-.02.219-.037.305-.053Z" transform="translate(-417.483 -787.232)" fill="#fff"/>
        <path id="Tracé_1124" data-name="Tracé 1124" d="M486.337,790.461h-.786a2.52,2.52,0,0,1-.053-.323c-.011-.113-.017-.221-.017-.322a2.758,2.758,0,0,1,.07-.622h2.417v6.066a4.9,4.9,0,0,1-.821.07,4.85,4.85,0,0,1-.81-.07Zm-.246-2.288a4.519,4.519,0,0,1-.07-.786,4.656,4.656,0,0,1,.07-.786c.133-.023.276-.041.428-.053s.292-.017.417-.017.278.005.434.017.3.03.434.053a3.642,3.642,0,0,1,.047.393c.008.129.012.26.012.393s0,.254-.012.387a3.641,3.641,0,0,1-.047.4,3.527,3.527,0,0,1-.428.047c-.153.008-.3.012-.429.012s-.266,0-.422-.012A3.532,3.532,0,0,1,486.09,788.173Z" transform="translate(-419.157 -786.53)" fill="#fff"/>
        <path id="Tracé_1125" data-name="Tracé 1125" d="M490.828,789.9a3.034,3.034,0,0,1,.329-.052,3.244,3.244,0,0,1,.364-.018,2.921,2.921,0,0,1,.352.018,3.174,3.174,0,0,1,.318.052.672.672,0,0,1,.064.17c.02.074.038.153.053.235s.029.163.041.241.021.145.03.2a1.921,1.921,0,0,1,.246-.352,1.816,1.816,0,0,1,.364-.317,1.961,1.961,0,0,1,.476-.228,1.835,1.835,0,0,1,.591-.088,1.718,1.718,0,0,1,1.82,1.08,2.337,2.337,0,0,1,.663-.757,1.755,1.755,0,0,1,1.086-.322,1.892,1.892,0,0,1,1.519.569,2.7,2.7,0,0,1,.487,1.778v3.86a4.963,4.963,0,0,1-1.666,0v-3.427a2.375,2.375,0,0,0-.159-.973.634.634,0,0,0-.639-.34,1.349,1.349,0,0,0-.393.059.838.838,0,0,0-.352.217,1.163,1.163,0,0,0-.258.446,2.319,2.319,0,0,0-.1.746v3.273a4.968,4.968,0,0,1-1.666,0v-3.427a2.361,2.361,0,0,0-.159-.973.633.633,0,0,0-.64-.34,1.408,1.408,0,0,0-.4.059.791.791,0,0,0-.358.228,1.222,1.222,0,0,0-.253.476,2.783,2.783,0,0,0-.094.8v3.18a4.967,4.967,0,0,1-1.666,0Z" transform="translate(-420.321 -787.232)" fill="#fff"/>
        <path id="Tracé_1126" data-name="Tracé 1126" d="M505.39,793.44a1.276,1.276,0,0,0,.493,1.02,1.979,1.979,0,0,0,1.174.318,4.536,4.536,0,0,0,.816-.077,4.59,4.59,0,0,0,.792-.217,2.736,2.736,0,0,1,.223.563,2.852,2.852,0,0,1,.1.7,5.714,5.714,0,0,1-2.065.352,4.006,4.006,0,0,1-1.45-.235,2.56,2.56,0,0,1-.985-.651,2.586,2.586,0,0,1-.563-.991,4.154,4.154,0,0,1-.183-1.256,4.072,4.072,0,0,1,.189-1.255,2.922,2.922,0,0,1,.558-1.021,2.635,2.635,0,0,1,.915-.687,3,3,0,0,1,1.273-.252,2.71,2.71,0,0,1,1.127.223,2.481,2.481,0,0,1,.839.61,2.57,2.57,0,0,1,.523.921,3.654,3.654,0,0,1,.176,1.145c0,.148-.005.295-.018.44a3.254,3.254,0,0,1-.041.347Zm2.382-1.163a1.478,1.478,0,0,0-.311-.909.986.986,0,0,0-.8-.346,1.161,1.161,0,0,0-.893.329,1.543,1.543,0,0,0-.363.926Z" transform="translate(-423.132 -787.232)" fill="#fff"/>
        <path id="Tracé_1127" data-name="Tracé 1127" d="M512.693,789.915c.117-.023.229-.041.334-.052a2.97,2.97,0,0,1,.347-.018,2.511,2.511,0,0,1,.346.023c.114.016.224.035.335.059a.654.654,0,0,1,.064.17c.02.075.038.153.053.235s.029.164.041.246.021.151.03.206a3.008,3.008,0,0,1,.634-.652,1.5,1.5,0,0,1,.939-.287q.117,0,.27.012a1.012,1.012,0,0,1,.223.035,2.446,2.446,0,0,1,.035.27q.012.153.012.317c0,.133-.005.278-.018.434a3.143,3.143,0,0,1-.064.446,1.612,1.612,0,0,0-.287-.023h-.194a2.736,2.736,0,0,0-.446.041,1.027,1.027,0,0,0-.469.218,1.285,1.285,0,0,0-.37.528,2.639,2.639,0,0,0-.146.985v2.888a3.879,3.879,0,0,1-.422.046q-.211.012-.411.012c-.133,0-.268,0-.4-.012s-.28-.023-.429-.046Z" transform="translate(-425.08 -787.252)" fill="#fff"/>
        <path id="Tracé_1128" data-name="Tracé 1128" d="M404.109,808.973a.966.966,0,0,0-.094-.458.7.7,0,0,0-.258-.276,1.09,1.09,0,0,0-.405-.135,3.7,3.7,0,0,0-.534-.035,4.159,4.159,0,0,0-1.35.247,3.1,3.1,0,0,1-.246-.576,2.2,2.2,0,0,1-.083-.645,6.383,6.383,0,0,1,1.033-.258,6.241,6.241,0,0,1,.962-.081,2.843,2.843,0,0,1,1.907.587,2.341,2.341,0,0,1,.687,1.877v3.521a9.789,9.789,0,0,1-1,.247,6.857,6.857,0,0,1-1.326.117,5.308,5.308,0,0,1-1.1-.106,2.343,2.343,0,0,1-.856-.351,1.663,1.663,0,0,1-.552-.634,2.11,2.11,0,0,1-.193-.95,1.737,1.737,0,0,1,.241-.945,1.848,1.848,0,0,1,.622-.61,2.742,2.742,0,0,1,.85-.329,4.508,4.508,0,0,1,.939-.1q.34,0,.751.035Zm0,1.209c-.094-.016-.2-.03-.305-.042a2.8,2.8,0,0,0-.293-.018,1.731,1.731,0,0,0-.91.206.718.718,0,0,0-.334.663.736.736,0,0,0,.13.469.752.752,0,0,0,.311.241,1.266,1.266,0,0,0,.386.094c.137.012.257.018.358.018a2.134,2.134,0,0,0,.352-.03c.117-.02.219-.037.305-.053Z" transform="translate(-400.706 -790.932)" fill="#fff"/>
        <path id="Tracé_1129" data-name="Tracé 1129" d="M409.15,806.884a2.355,2.355,0,0,1,.323-.048c.106-.008.225-.011.358-.011a3.353,3.353,0,0,1,.669.07.679.679,0,0,1,.064.171c.02.074.039.154.059.241s.034.17.046.252.021.15.03.206a2.381,2.381,0,0,1,.258-.37,1.627,1.627,0,0,1,.369-.322,2.086,2.086,0,0,1,.487-.229,1.915,1.915,0,0,1,.6-.088,2.388,2.388,0,0,1,.945.188,2.078,2.078,0,0,1,.768.569,2.7,2.7,0,0,1,.51.956,4.508,4.508,0,0,1,.182,1.361,3.93,3.93,0,0,1-.223,1.368,2.793,2.793,0,0,1-.646,1.027,2.857,2.857,0,0,1-1.032.651,3.926,3.926,0,0,1-1.385.229c-.133,0-.264-.006-.393-.018s-.237-.026-.323-.041v2.7c-.149.023-.291.039-.428.047s-.272.011-.405.011-.268,0-.4-.011-.28-.024-.429-.047Zm1.666,4.788a2.566,2.566,0,0,0,.728.094,1.362,1.362,0,0,0,1.115-.47,2.193,2.193,0,0,0,.387-1.419,3.64,3.64,0,0,0-.059-.675,1.535,1.535,0,0,0-.2-.534,1.054,1.054,0,0,0-.358-.351,1.171,1.171,0,0,0-1.032-.018.917.917,0,0,0-.335.305,1.34,1.34,0,0,0-.188.451,2.49,2.49,0,0,0-.059.552Z" transform="translate(-402.544 -790.932)" fill="#fff"/>
        <path id="Tracé_1130" data-name="Tracé 1130" d="M418.148,806.884a2.353,2.353,0,0,1,.323-.048c.106-.008.224-.011.358-.011a3.353,3.353,0,0,1,.669.07.678.678,0,0,1,.064.171c.02.074.039.154.059.241s.035.17.046.252.022.15.03.206a2.38,2.38,0,0,1,.258-.37,1.626,1.626,0,0,1,.369-.322,2.086,2.086,0,0,1,.487-.229,1.918,1.918,0,0,1,.6-.088,2.387,2.387,0,0,1,.945.188,2.078,2.078,0,0,1,.768.569,2.7,2.7,0,0,1,.51.956,4.508,4.508,0,0,1,.182,1.361,3.931,3.931,0,0,1-.223,1.368,2.8,2.8,0,0,1-.645,1.027,2.867,2.867,0,0,1-1.033.651,3.926,3.926,0,0,1-1.385.229c-.133,0-.264-.006-.393-.018s-.237-.026-.323-.041v2.7c-.149.023-.291.039-.428.047s-.272.011-.405.011-.268,0-.4-.011-.28-.024-.429-.047Zm1.666,4.788a2.566,2.566,0,0,0,.728.094,1.362,1.362,0,0,0,1.115-.47,2.193,2.193,0,0,0,.387-1.419,3.645,3.645,0,0,0-.059-.675,1.536,1.536,0,0,0-.2-.534,1.054,1.054,0,0,0-.358-.351,1.017,1.017,0,0,0-.534-.129,1.032,1.032,0,0,0-.5.111.917.917,0,0,0-.335.305,1.34,1.34,0,0,0-.188.451,2.49,2.49,0,0,0-.059.552Z" transform="translate(-404.502 -790.932)" fill="#fff"/>
        <path id="Tracé_1131" data-name="Tracé 1131" d="M427.168,806.915c.118-.024.229-.041.335-.052a3.149,3.149,0,0,1,.346-.017,2.42,2.42,0,0,1,.347.023c.113.015.225.035.335.058a.693.693,0,0,1,.064.171c.02.075.037.153.053.235s.029.164.041.246.021.15.03.206a2.987,2.987,0,0,1,.633-.652,1.5,1.5,0,0,1,.94-.287c.077,0,.167,0,.269.011a1.113,1.113,0,0,1,.223.035,2.166,2.166,0,0,1,.035.271c.008.1.013.207.013.316,0,.134-.006.279-.018.435a3.014,3.014,0,0,1-.065.445,1.7,1.7,0,0,0-.287-.023h-.194a2.729,2.729,0,0,0-.445.041,1.033,1.033,0,0,0-.47.217,1.286,1.286,0,0,0-.369.528,2.637,2.637,0,0,0-.147.985v2.888a3.828,3.828,0,0,1-.422.046c-.141.008-.277.012-.41.012s-.268,0-.405-.012-.279-.023-.429-.046Z" transform="translate(-406.465 -790.951)" fill="#fff"/>
        <path id="Tracé_1132" data-name="Tracé 1132" d="M434.51,810.44a1.276,1.276,0,0,0,.493,1.02,1.978,1.978,0,0,0,1.174.318,4.531,4.531,0,0,0,.816-.077,4.585,4.585,0,0,0,.792-.217,2.738,2.738,0,0,1,.223.563,2.891,2.891,0,0,1,.106.7,5.721,5.721,0,0,1-2.065.352,4.006,4.006,0,0,1-1.45-.236,2.559,2.559,0,0,1-.985-.651,2.586,2.586,0,0,1-.563-.991,4.154,4.154,0,0,1-.182-1.256,4.1,4.1,0,0,1,.188-1.255,2.923,2.923,0,0,1,.558-1.021,2.63,2.63,0,0,1,.915-.687,3,3,0,0,1,1.273-.252,2.694,2.694,0,0,1,1.127.223,2.47,2.47,0,0,1,.839.609,2.573,2.573,0,0,1,.523.922,3.631,3.631,0,0,1,.176,1.145c0,.148-.005.295-.018.44s-.025.26-.041.347Zm2.382-1.163a1.478,1.478,0,0,0-.311-.909.989.989,0,0,0-.8-.346,1.155,1.155,0,0,0-.892.329,1.543,1.543,0,0,0-.364.926Z" transform="translate(-407.706 -790.932)" fill="#fff"/>
        <path id="Tracé_1133" data-name="Tracé 1133" d="M441.813,806.9a3.141,3.141,0,0,1,.329-.052,3.428,3.428,0,0,1,.364-.017,3.1,3.1,0,0,1,.352.017c.1.012.207.029.317.052a.652.652,0,0,1,.064.171c.02.074.038.153.053.235s.03.163.041.241.022.145.03.2a2.835,2.835,0,0,1,.282-.352,2,2,0,0,1,.382-.316,2.065,2.065,0,0,1,.487-.229,1.922,1.922,0,0,1,.6-.088,2.022,2.022,0,0,1,1.555.563,2.551,2.551,0,0,1,.522,1.772v3.873a4.968,4.968,0,0,1-1.666,0v-3.427a2.005,2.005,0,0,0-.193-.974.711.711,0,0,0-.675-.34,1.5,1.5,0,0,0-.411.059.859.859,0,0,0-.381.228,1.226,1.226,0,0,0-.276.475,2.5,2.5,0,0,0-.106.8v3.18a4.968,4.968,0,0,1-1.666,0Z" transform="translate(-409.653 -790.932)" fill="#fff"/>
        <path id="Tracé_1134" data-name="Tracé 1134" d="M454.311,803.708a3.873,3.873,0,0,1,.417-.046c.136-.008.271-.013.4-.013s.27,0,.411.013a3.9,3.9,0,0,1,.423.046v8.379a8.38,8.38,0,0,1-1.121.253,9.211,9.211,0,0,1-1.379.088,4.129,4.129,0,0,1-1.191-.171,2.712,2.712,0,0,1-1-.54,2.537,2.537,0,0,1-.687-.957,3.976,3.976,0,0,1-.035-2.693,2.988,2.988,0,0,1,.622-1.027,2.928,2.928,0,0,1,.98-.686,3.144,3.144,0,0,1,1.278-.252c.141,0,.287.005.44.017a2.3,2.3,0,0,1,.44.076Zm0,3.768a2.5,2.5,0,0,0-.751-.094,1.372,1.372,0,0,0-.674.158,1.411,1.411,0,0,0-.476.422,1.79,1.79,0,0,0-.275.622,3.118,3.118,0,0,0-.088.746,2.477,2.477,0,0,0,.117.815,1.356,1.356,0,0,0,.322.534,1.205,1.205,0,0,0,.487.287,2.041,2.041,0,0,0,.61.088,3.428,3.428,0,0,0,.364-.017,2.087,2.087,0,0,0,.364-.076Z" transform="translate(-411.507 -790.256)" fill="#fff"/>
        <path id="Tracé_1135" data-name="Tracé 1135" d="M459.671,806.915c.118-.024.229-.041.335-.052a3.149,3.149,0,0,1,.346-.017,2.421,2.421,0,0,1,.347.023c.113.015.225.035.334.058a.636.636,0,0,1,.064.171c.02.075.038.153.054.235s.029.164.041.246.021.15.03.206a2.985,2.985,0,0,1,.633-.652,1.5,1.5,0,0,1,.939-.287c.078,0,.168,0,.27.011a1.114,1.114,0,0,1,.223.035,2.325,2.325,0,0,1,.035.271c.008.1.013.207.013.316q0,.2-.019.435a3.015,3.015,0,0,1-.064.445,1.7,1.7,0,0,0-.287-.023h-.194a2.728,2.728,0,0,0-.445.041,1.033,1.033,0,0,0-.47.217,1.286,1.286,0,0,0-.369.528,2.637,2.637,0,0,0-.147.985v2.888a3.828,3.828,0,0,1-.422.046c-.141.008-.277.012-.41.012s-.268,0-.405-.012-.279-.023-.429-.046Z" transform="translate(-413.54 -790.951)" fill="#fff"/>
        <path id="Tracé_1136" data-name="Tracé 1136" d="M467.013,810.44a1.276,1.276,0,0,0,.493,1.02,1.978,1.978,0,0,0,1.174.318,4.53,4.53,0,0,0,.816-.077,4.584,4.584,0,0,0,.792-.217,2.736,2.736,0,0,1,.223.563,2.891,2.891,0,0,1,.106.7,5.722,5.722,0,0,1-2.065.352,4.006,4.006,0,0,1-1.45-.236,2.559,2.559,0,0,1-.985-.651,2.586,2.586,0,0,1-.563-.991,4.153,4.153,0,0,1-.183-1.256,4.1,4.1,0,0,1,.189-1.255,2.923,2.923,0,0,1,.558-1.021,2.63,2.63,0,0,1,.915-.687,3,3,0,0,1,1.272-.252,2.7,2.7,0,0,1,1.127.223,2.47,2.47,0,0,1,.839.609,2.573,2.573,0,0,1,.523.922,3.631,3.631,0,0,1,.176,1.145c0,.148-.005.295-.018.44s-.025.26-.041.347Zm2.382-1.163a1.483,1.483,0,0,0-.311-.909.989.989,0,0,0-.8-.346,1.155,1.155,0,0,0-.892.329,1.538,1.538,0,0,0-.364.926Z" transform="translate(-414.78 -790.932)" fill="#fff"/>
        <path id="Tracé_1137" data-name="Tracé 1137" d="M477.875,812.322a5.329,5.329,0,0,1-.07-.856,5.576,5.576,0,0,1,.07-.869,5.443,5.443,0,0,1,.857-.07,5.663,5.663,0,0,1,.868.07,5.505,5.505,0,0,1,.07.857.668.668,0,0,1-.927.938A5.329,5.329,0,0,1,477.875,812.322Zm-.047-8.438a6.035,6.035,0,0,1,.9-.07,6.105,6.105,0,0,1,.915.07l-.117,5.739a4.579,4.579,0,0,1-.786.071,4.507,4.507,0,0,1-.8-.071Z" transform="translate(-417.486 -790.292)" fill="#fff"/>
      </g>
    </g>
    <path id="Tracé_1138" data-name="Tracé 1138" d="M400.237,768.423l1.313-1.294a.367.367,0,0,1,.521,0,1.327,1.327,0,0,0,.984.406c.541,0,1.14-.213,1.14-1.275v-9.286a.366.366,0,0,1,.366-.367h2.356a.366.366,0,0,1,.367.367v9.306A4.025,4.025,0,0,1,400.2,768.9a.4.4,0,0,1,.038-.482" transform="translate(-24.4 -10.375)" fill="#f27e1b"/>
    <path id="Tracé_1139" data-name="Tracé 1139" d="M411.735,760.142a.367.367,0,0,1,.367-.367h7.993a.367.367,0,0,1,.367.367v2.1a.367.367,0,0,1-.367.367h-5.348v2.394h4.4a.381.381,0,0,1,.368.366v2.1a.367.367,0,0,1-.368.366h-4.4v2.607h5.348a.367.367,0,0,1,.367.368v2.1a.368.368,0,0,1-.367.368H412.1a.368.368,0,0,1-.367-.368Z" transform="translate(-26.924 -11.065)" fill="#f27e1b"/>
    <path id="Tracé_1140" data-name="Tracé 1140" d="M425.448,757.924a.381.381,0,0,1,.367-.368h2.374a.367.367,0,0,1,.367.368v8.05a2.147,2.147,0,0,0,2.374,2.2,2.169,2.169,0,0,0,2.413-2.2v-8.05a.367.367,0,0,1,.366-.368h2.375a.38.38,0,0,1,.367.368v8.205a5.515,5.515,0,0,1-11,0Z" transform="translate(-29.909 -10.582)" fill="#f27e1b"/>
    <path id="Tracé_1141" data-name="Tracé 1141" d="M441.848,756.863a.364.364,0,0,1,.368-.348h.289c.193,0,.329.135.483.289l7.414,7.124h.019v-6.853a.366.366,0,0,1,.366-.367H453.1a.38.38,0,0,1,.368.367v12.993a.34.34,0,0,1-.368.348h-.193a.622.622,0,0,1-.484-.214l-7.509-7.548H444.9v7.2a.368.368,0,0,1-.368.368h-2.3a.381.381,0,0,1-.368-.368Z" transform="translate(-33.478 -10.355)" fill="#f27e1b"/>
    <path id="Tracé_1142" data-name="Tracé 1142" d="M458.935,758.179a.367.367,0,0,1,.366-.368H467.3a.367.367,0,0,1,.366.368v2.1a.365.365,0,0,1-.366.366h-5.348v2.395h4.4a.379.379,0,0,1,.366.365v2.105a.365.365,0,0,1-.366.366h-4.4v2.607H467.3a.366.366,0,0,1,.366.368v2.1a.367.367,0,0,1-.366.368H459.3a.367.367,0,0,1-.366-.368Z" transform="translate(-37.197 -10.637)" fill="#f27e1b"/>
    <path id="Tracé_1143" data-name="Tracé 1143" d="M472.05,769.021a.422.422,0,0,1-.076-.566l.868-1.53a.443.443,0,0,1,.641-.113,4.843,4.843,0,0,0,2.681,1.038,1.184,1.184,0,0,0,1.3-1.133c0-.794-.7-1.3-1.944-1.907-1.83-.889-3.663-1.908-3.663-4.173,0-1.869,1.454-3.757,4.362-3.757a7.026,7.026,0,0,1,4.041,1.415.479.479,0,0,1,.113.6l-.962,1.454a.586.586,0,0,1-.832.131,5.156,5.156,0,0,0-2.548-1.019,1.024,1.024,0,0,0-1.152,1.038c0,.623.737,1.114,2.058,1.756,1.662.811,3.814,1.737,3.814,4.305a4.148,4.148,0,0,1-4.455,3.908,5.991,5.991,0,0,1-4.247-1.454" transform="translate(-40.01 -10.435)" fill="#f27e1b"/>
    <path id="Tracé_1144" data-name="Tracé 1144" d="M372.279,753.28a42.125,42.125,0,1,1-42.124-42.125,42.125,42.125,0,0,1,42.124,42.125" transform="translate(0 -0.483)" fill="#54c9ec"/>
    <path id="Tracé_1145" data-name="Tracé 1145" d="M306.95,762.367a1.507,1.507,0,0,0-1.6-1.364,1.64,1.64,0,0,0-1.651,1.364Zm-3.853-5.433-.5-1a.366.366,0,0,1,.143-.455l4.068-2.489c.144-.1.5-.143.622.073l.814,1.411a.5.5,0,0,1-.143.718l-4.355,1.962a.417.417,0,0,1-.646-.216m2.346,1.173a5.147,5.147,0,0,1,5.24,5.169,7.138,7.138,0,0,1-.048.718.539.539,0,0,1-.527.479h-6.821a2.107,2.107,0,0,0,2.3,1.914,4.238,4.238,0,0,0,2.106-.693.451.451,0,0,1,.694,0l1.22,1.6a.589.589,0,0,1-.024.789,5.875,5.875,0,0,1-9.883-4.211,5.734,5.734,0,0,1,5.743-5.768" transform="translate(-2.54 -9.569)" fill="#fff"/>
    <path id="Tracé_1146" data-name="Tracé 1146" d="M315.725,760.32a.516.516,0,0,1,.526-.527h1.077a.625.625,0,0,1,.5.335l.407,1.1a4.109,4.109,0,0,1,3.446-1.676c3.445,0,4.619,2.441,4.619,5.48v5.289a.527.527,0,0,1-.5.526h-2.608a.515.515,0,0,1-.526-.526v-5.337c0-1.052-.359-2.034-1.6-2.034-1.1,0-1.675.767-1.675,1.891v5.48a.479.479,0,0,1-.5.526h-2.633a.53.53,0,0,1-.526-.526Z" transform="translate(-6.028 -11.017)" fill="#fff"/>
    <path id="Tracé_1147" data-name="Tracé 1147" d="M338.513,763.814a1.507,1.507,0,0,0-1.6-1.364,1.641,1.641,0,0,0-1.652,1.364Zm-1.508-4.26a5.147,5.147,0,0,1,5.241,5.169c0,.167-.024.551-.048.718a.539.539,0,0,1-.527.479h-6.82a2.107,2.107,0,0,0,2.3,1.914,4.237,4.237,0,0,0,2.105-.693.452.452,0,0,1,.695,0l1.22,1.6a.589.589,0,0,1-.023.789,5.875,5.875,0,0,1-9.883-4.211,5.735,5.735,0,0,1,5.743-5.768" transform="translate(-9.41 -11.017)" fill="#fff"/>
    <path id="Tracé_1148" data-name="Tracé 1148" d="M347.288,760.32a.516.516,0,0,1,.527-.527h1.148a.487.487,0,0,1,.5.335l.5,1.22a3.069,3.069,0,0,1,2.752-1.795,3.637,3.637,0,0,1,2.154.574.441.441,0,0,1,.071.6l-1.1,2.178a.468.468,0,0,1-.622.263,3.058,3.058,0,0,0-.838-.167,1.427,1.427,0,0,0-1.46,1.531v5.792c0,.335-.192.526-.6.526h-2.513a.531.531,0,0,1-.527-.526Z" transform="translate(-12.898 -11.017)" fill="#fff"/>
    <path id="Tracé_1149" data-name="Tracé 1149" d="M363.357,767.69a2.369,2.369,0,0,0,0-4.738,2.369,2.369,0,0,0,0,4.738m5.671,2.8c0,4-2.584,5.886-5.911,5.886a8.164,8.164,0,0,1-4.116-1.2.535.535,0,0,1-.12-.622l.838-2.011a.473.473,0,0,1,.646-.215,5.078,5.078,0,0,0,2.68.885c1.364,0,2.345-.526,2.345-2.2v-.574a5.166,5.166,0,0,1-2.56.67c-2.944,0-5.48-1.914-5.48-5.815a5.551,5.551,0,0,1,5.455-5.743,4.89,4.89,0,0,1,3.733,1.7l.311-.91c.1-.287.311-.55.574-.55H368.5a.547.547,0,0,1,.526.527Z" transform="translate(-15.088 -11.017)" fill="#fff"/>
    <path id="Tracé_1150" data-name="Tracé 1150" d="M375.17,758.8a.516.516,0,0,1,.526-.527h2.585a.516.516,0,0,1,.526.527v10a.531.531,0,0,1-.526.527H375.7a.531.531,0,0,1-.526-.527Zm-.263-4.116a2.07,2.07,0,1,1,2.058,2.058,2.058,2.058,0,0,1-2.058-2.058" transform="translate(-18.909 -9.499)" fill="#fff"/>
    <path id="Tracé_1151" data-name="Tracé 1151" d="M389.314,763.814a1.506,1.506,0,0,0-1.6-1.364,1.64,1.64,0,0,0-1.652,1.364Zm-1.508-4.26a5.147,5.147,0,0,1,5.241,5.169c0,.167-.024.551-.048.718a.539.539,0,0,1-.527.479h-6.821a2.107,2.107,0,0,0,2.3,1.914,4.237,4.237,0,0,0,2.105-.693.452.452,0,0,1,.695,0l1.22,1.6a.587.587,0,0,1-.023.789,5.875,5.875,0,0,1-9.883-4.211,5.735,5.735,0,0,1,5.743-5.768" transform="translate(-20.466 -11.017)" fill="#fff"/>
    <path id="Tracé_1152" data-name="Tracé 1152" d="M389.92,708.937a16.049,16.049,0,0,0-15.078,10.552A42.182,42.182,0,0,1,389.5,741.017c.138,0,.278.005.416.005a16.043,16.043,0,1,0,0-32.086" transform="translate(-18.895)" fill="#f27e1b"/>
    <path id="Tracé_1153" data-name="Tracé 1153" d="M374.574,722.425a16.055,16.055,0,0,0,14.663,21.528,42.189,42.189,0,0,0-14.663-21.528" transform="translate(-18.626 -2.936)" fill="#6f5f31"/>
  </g>
</svg>
