<svg xmlns="http://www.w3.org/2000/svg" width="53.501" height="53.501" viewBox="0 0 53.501 53.501">
  <g id="_2024668_data_download_downloader_downloading_transfer_icon" data-name="2024668_data_download_downloader_downloading_transfer_icon" transform="translate(-1 -2)">
    <path id="Tracé_1094" data-name="Tracé 1094" d="M1,28.75A26.75,26.75,0,1,0,27.75,2,26.75,26.75,0,0,0,1,28.75Z" fill="#333"/>
    <g id="Download" transform="translate(14.375 15.375)">
      <line id="Ligne_77" data-name="Ligne 77" y2="19" transform="translate(13.625 0.126)" fill="none" stroke="#fff" stroke-linecap="round" stroke-miterlimit="10" stroke-width="2"/>
      <path id="Tracé_1095" data-name="Tracé 1095" d="M38.866,32.55,31.677,39.8a.15.15,0,0,1-.217,0L24.27,32.55" transform="translate(-18.193 -20.387)" fill="none" stroke="#fff" stroke-linecap="round" stroke-miterlimit="10" stroke-width="2"/>
      <path id="Tracé_1096" data-name="Tracé 1096" d="M43.75,38v5.166a4.865,4.865,0,0,1-4.865,4.865H21.865A4.865,4.865,0,0,1,17,43.166V38" transform="translate(-17 -21.281)" fill="none" stroke="#fff" stroke-linecap="round" stroke-linejoin="round" stroke-width="2"/>
    </g>
  </g>
</svg>
